Coordinates
version=1
nRows=29
nColumns=24
inDegrees=yes

Units are S.I. units (second, meters, Newtons, ...)
Angles are in degrees.

endheader
time	pelvis_tilt	pelvis_list	pelvis_rotation	pelvis_tx	pelvis_ty	pelvis_tz	hip_flexion_r	hip_adduction_r	hip_rotation_r	knee_angle_r	ankle_angle_r	subtalar_angle_r	mtp_angle_r	hip_flexion_l	hip_adduction_l	hip_rotation_l	knee_angle_l	ankle_angle_l	subtalar_angle_l	mtp_angle_l	lumbar_extension	lumbar_bending	lumbar_rotation
      0.56700000	      0.53095465	      1.71392972	      6.54154742	     -0.76451692	      0.96493167	      0.31421498	     27.39117545	     -1.57758209	     -3.85809490	     -3.44302188	      5.60211215	    -13.21894090	     -0.11670474	    -21.78960596	      3.09934523	      7.02687715	     -1.97945747	     13.14336911	     -7.24784673	      0.42622802	     -0.51998661	      0.46568613	     -3.04257765
      0.57116667	      0.44263025	      1.57948082	      6.61378509	     -0.75827555	      0.96373685	      0.31439052	     27.65023204	     -1.44130654	     -3.83956551	     -3.95896907	      5.51411618	    -13.74808362	     -0.19392361	    -21.95733797	      2.89410456	      6.77957498	     -2.20293677	     13.28445877	     -6.85182268	      0.51016095	     -0.35577734	      0.63284639	     -3.03404237
      0.57533333	      0.39496553	      1.42777187	      6.67940800	     -0.75197749	      0.96262222	      0.31458074	     27.87203214	     -1.28330586	     -3.85890935	     -4.53794454	      5.35327239	    -14.18755591	     -0.26324365	    -22.17370194	      2.66745252	      6.55184513	     -2.41431862	     13.36366398	     -6.53915783	      0.60196276	     -0.24455136	      0.82142333	     -3.14765951
      0.57950000	      0.31523464	      1.27587058	      6.73738911	     -0.74565005	      0.96149023	      0.31477170	     28.14418406	     -1.12710420	     -3.86824592	     -5.19966815	      5.16321041	    -14.64301443	     -0.32183045	    -22.34657333	      2.44913728	      6.34092324	     -2.64757288	     13.41474588	     -6.25241333	      0.69638363	     -0.10019117	      1.00720572	     -3.21199722
      0.58366667	      0.26650097	      1.11735139	      6.77386785	     -0.73928196	      0.96042214	      0.31501057	     28.37933966	     -0.94733897	     -3.83785861	     -5.89357393	      4.88992648	    -15.17113853	     -0.38770891	    -22.52082026	      2.22749431	      6.04153795	     -2.94416936	     13.47717740	     -5.91295154	      0.83542650	      0.01335018	      1.20720055	     -3.28674327
      0.58783333	      0.17054018	      0.95308770	      6.81179352	     -0.73284558	      0.95932806	      0.31523628	     28.68107477	     -0.77205881	     -3.84619743	     -6.66696566	      4.60104632	    -15.63328976	     -0.43224544	    -22.66477701	      2.00602744	      5.84726190	     -3.20334548	     13.49272541	     -5.65927838	      0.95121942	      0.20557518	      1.41456667	     -3.33569736
      0.59200000	      0.09511673	      0.78258502	      6.83336957	     -0.72637007	      0.95829406	      0.31549540	     28.95473222	     -0.57743348	     -3.82543569	     -7.46186583	      4.24789605	    -16.15972371	     -0.47228898	    -22.79671383	      1.78156734	      5.58487193	     -3.52905813	     13.49674349	     -5.36577325	      1.08724133	      0.37184243	      1.63132211	     -3.38758297
      0.59616667	      0.01205954	      0.60689106	      6.84037339	     -0.71986509	      0.95728375	      0.31578662	     29.23715511	     -0.36833959	     -3.77861490	     -8.28679777	      3.84264143	    -16.72432710	     -0.50994688	    -22.90236429	      1.55802075	      5.29866772	     -3.89346493	     13.50061289	     -5.07007204	      1.25665171	      0.53997810	      1.85090646	     -3.42663033
      0.60033333	     -0.07964161	      0.41809112	      6.84353481	     -0.71328174	      0.95630859	      0.31608181	     29.53101398	     -0.14815513	     -3.77088696	     -9.14639266	      3.39568090	    -17.21612808	     -0.53786224	    -23.01316577	      1.32386351	      5.07735661	     -4.22312766	     13.42576165	     -4.83808329	      1.40483127	      0.73101561	      2.08293848	     -3.45071586
      0.60450000	     -0.16677051	      0.23404653	      6.82634608	     -0.70668829	      0.95537661	      0.31641608	     29.81604221	      0.08279273	     -3.71510831	    -10.01881733	      2.91776170	    -17.78982148	     -0.56607586	    -23.08729913	      1.10240168	      4.78034245	     -4.64145335	     13.37606601	     -4.57222426	      1.60662692	      0.91737432	      2.31549654	     -3.47673193
      0.60866667	     -0.24796559	      0.03861939	      6.80682371	     -0.70005803	      0.95450765	      0.31677266	     30.08976438	      0.32904744	     -3.66761401	    -10.90397678	      2.42215275	    -18.35629416	     -0.59355268	    -23.14713259	      0.86849410	      4.48890467	     -5.09369626	     13.27038957	     -4.33419157	      1.86573695	      1.08178697	      2.55500072	     -3.48900443
      0.61283333	     -0.35323121	     -0.15534439	      6.77517823	     -0.69336195	      0.95365395	      0.31712514	     30.39111068	      0.57083445	     -3.64632041	    -11.81147733	      1.87576532	    -18.80134872	     -0.61718567	    -23.19432110	      0.64626443	      4.25978044	     -5.52335541	     13.12174979	     -4.15051250	      2.08083145	      1.31333938	      2.80782158	     -3.49332411
      0.61700000	     -0.44812518	     -0.35481224	      6.73092495	     -0.68664479	      0.95287310	      0.31751893	     30.67503300	      0.83089473	     -3.60823757	    -12.72213110	      1.33923623	    -19.29498865	     -0.64190634	    -23.21805553	      0.42139627	      3.98402761	     -6.01550939	     12.95199724	     -3.95832962	      2.33026509	      1.52034864	      3.05920499	     -3.49080127
      0.62116667	     -0.53694611	     -0.56317354	      6.68026650	     -0.67990996	      0.95215680	      0.31793007	     30.94263228	      1.10534357	     -3.55639384	    -13.62683475	      0.80213231	    -19.77565899	     -0.67091214	    -23.22534494	      0.18804949	      3.69818696	     -6.55014755	     12.74205995	     -3.77380790	      2.63399789	      1.71745364	      3.32406518	     -3.47968987
      0.62533333	     -0.62413004	     -0.76759274	      6.62059477	     -0.67313528	      0.95151012	      0.31835658	     31.20652505	      1.37741764	     -3.52866252	    -14.54397923	      0.28320014	    -20.16040143	     -0.70025068	    -23.21852316	     -0.03570440	      3.43949017	     -7.10783803	     12.46563870	     -3.65144710	      2.93445466	      1.91814861	      3.58700331	     -3.46381776
      0.62950000	     -0.61980876	     -0.96902007	      6.55313434	     -0.66633656	      0.95103830	      0.31876456	     31.38849921	      1.64307745	     -3.60071329	    -15.51713197	     -0.07923733	    -20.30673344	     -0.71106433	    -23.32445975	     -0.25571138	      3.24336375	     -7.62942787	     12.09323198	     -3.70787401	      2.98326824	      1.99359937	      3.84953362	     -3.47263964
      0.63366667	     -0.78265416	     -1.18030019	      6.48096916	     -0.65954588	      0.95043910	      0.31927772	     31.69630944	      1.94058234	     -3.46187888	    -16.37630380	     -0.65249335	    -20.84994704	     -0.75519003	    -23.14206487	     -0.48217177	      2.91156966	     -8.35826072	     11.81475691	     -3.45545506	      3.38359388	      2.30128743	      4.11153290	     -3.40518452
      0.63783333	     -0.79892473	     -1.40616330	      6.40415562	     -0.65266937	      0.95010453	      0.31973597	     31.85706877	      2.24256303	     -3.49028791	    -17.28592526	     -1.00516410	    -21.00640249	     -0.77618770	    -23.17851421	     -0.72690697	      2.68813549	     -8.94592070	     11.28626243	     -3.44683234	      3.53907076	      2.42984787	      4.41576546	     -3.39881119
      0.64200000	     -0.84590972	     -1.64133742	      6.31260515	     -0.64584820	      0.94978660	      0.32030754	     32.02997599	      2.58520419	     -3.39650947	    -18.15026916	     -1.39591849	    -21.43638052	     -1.40073407	    -23.08075338	     -0.98800580	      2.32457531	     -9.71802969	     10.80739689	     -3.38032288	      9.38078363	      2.57260756	      4.70679766	     -3.35878664
      0.64616667	     -0.86225949	     -1.84996739	      6.22035281	     -0.63899659	      0.94958842	      0.32081865	     32.17652611	      2.88004613	     -3.40318707	    -19.05143719	     -1.67346132	    -21.50831540	     -1.41094903	    -23.03929331	     -1.20872077	      2.10714451	    -10.44518626	     10.24337930	     -3.43168186	      9.39477704	      2.69564755	      4.98758474	     -3.33509022
      0.65033333	     -0.89541129	     -2.06717461	      6.12356644	     -0.63215444	      0.94944440	      0.32138264	     32.32244691	      3.19356716	     -3.37650012	    -19.92164651	     -1.91481952	    -21.62483263	     -1.42710237	    -22.93087249	     -1.44025229	      1.87144184	    -11.25190698	      9.66644285	     -3.46080162	      9.44645297	      2.82554158	      5.26066647	     -3.29119851
      0.65450000	     -0.93107888	     -2.27374213	      6.02471382	     -0.62536036	      0.94936903	      0.32199481	     32.44849452	      3.51066479	     -3.29432520	    -20.75281467	     -2.11631840	    -21.83186673	     -1.46944193	    -22.74664748	     -1.66992438	      1.57109225	    -12.19160294	      9.11643276	     -3.42204936	      9.63898330	      2.96345969	      5.51528878	     -3.20823283
      0.65866667	     -0.88335807	     -2.48819975	      5.92933293	     -0.61852264	      0.94947937	      0.32256296	     32.47958213	      3.82395709	     -3.31565579	    -21.59110653	     -2.24436318	    -21.88196932	     -1.48564015	    -22.67163482	     -1.90685325	      1.35527292	    -13.07005935	      8.41343767	     -3.52388813	      9.70991155	      3.01606989	      5.81241424	     -3.19744210
      0.66283333	     -0.86813287	     -2.70914182	      5.82443252	     -0.61171856	      0.94961921	      0.32319580	     32.52052696	      4.15884600	     -3.27905245	    -22.38326329	     -2.31619746	    -21.93197067	     -1.50798218	    -22.50971167	     -2.15072892	      1.12519283	    -14.03208114	      7.66563878	     -3.61234090	      9.82762879	      3.07533643	      6.09120274	     -3.16386718
      0.66700000	     -0.84183894	     -2.91757744	      5.72692808	     -0.60496472	      0.94984772	      0.32384761	     32.52886026	      4.48388953	     -3.23788106	    -23.14139149	     -2.34475136	    -21.97924933	     -1.53768187	    -22.30623799	     -2.38931631	      0.90296805	    -15.07732222	      6.88216387	     -3.71613491	      9.99354402	      3.12423807	      6.35132761	     -3.11894699
      0.67116667	     -0.76627284	     -3.17948116	      5.61942559	     -0.59822636	      0.95020290	      0.32458965	     32.42901650	      4.89849401	     -3.13172198	    -23.77410522	     -2.45355110	    -22.25299488	     -2.50797355	    -22.08485322	     -2.71356368	      0.50506153	    -16.23309581	      6.06174449	     -3.68903076	     15.42984838	      3.13064799	      6.68054117	     -2.96844476
      0.67533333	     -0.75671379	     -3.31018096	      5.53170534	     -0.59158031	      0.95052443	      0.32519861	     32.44575900	      5.12291854	     -3.14530671	    -24.55124220	     -2.26495230	    -22.05850802	     -2.54062328	    -21.79852506	     -2.85958289	      0.44033635	    -17.36374312	      5.12719063	     -4.02224082	     15.54468174	      3.19120294	      6.84497459	     -3.01224113
      0.67950000	     -0.67178616	     -3.50393789	      5.45060093	     -0.58494071	      0.95102683	      0.32585746	     32.31556251	      5.43362679	     -3.13823440	    -25.17656708	     -2.19486772	    -22.02991147	     -2.54857167	    -21.53532915	     -3.10241519	      0.25011341	    -18.57758829	      4.17867413	     -4.18452404	     15.57965431	      3.17193523	      7.09681839	     -2.99329641
      0.68366667	     -0.59735690	     -3.68922065	      5.36706333	     -0.57837142	      0.95156053	      0.32654133	     32.17665391	      5.74320912	     -3.10782914	    -25.76746934	     -2.07353253	    -22.00287506	     -2.55775359	    -21.21098894	     -3.33841108	      0.07005734	    -19.86312121	      3.20313383	     -4.36397488	     15.63132326	      3.15720058	      7.33312455	     -2.96633517
